<?xml version="1.0" standalone="no"?>
<!DOCTYPE svg PUBLIC "-//W3C//DTD SVG 20010904//EN"
 "http://www.w3.org/TR/2001/REC-SVG-20010904/DTD/svg10.dtd">
<svg version="1.0" xmlns="http://www.w3.org/2000/svg"
 width="379.000000pt" height="368.000000pt" viewBox="0 0 379.000000 368.000000"
 preserveAspectRatio="xMidYMid meet">

<g transform="translate(0.000000,368.000000) scale(0.100000,-0.100000)"
fill="#000000" stroke="none">
<path d="M114 3653 l-82 -4 -7 -142 c-3 -78 -5 -378 -3 -667 l3 -525 65 -23
c90 -33 256 -64 590 -111 157 -23 313 -45 348 -51 34 -5 92 -15 130 -21 225
-37 442 -97 545 -152 139 -73 221 -244 187 -390 -25 -104 -78 -188 -156 -247
-127 -96 -289 -111 -1037 -93 l-287 6 0 358 c0 197 -4 360 -8 363 -10 6 -348
76 -368 76 -12 0 -14 -85 -14 -596 l0 -595 788 4 c858 4 838 2 992 63 100 39
225 128 294 209 109 129 185 334 186 498 0 248 -114 481 -309 629 -158 120
-337 176 -801 253 -202 33 -675 122 -722 135 l-38 11 0 309 c0 171 4 311 9
314 5 3 206 6 447 7 471 1 531 -4 624 -51 69 -35 134 -103 165 -172 36 -81 45
-204 21 -297 -10 -35 -15 -65 -12 -68 9 -10 356 -75 369 -70 40 15 56 320 23
452 -28 115 -97 245 -173 325 -81 86 -137 129 -239 179 -153 75 -227 82 -894
85 -305 2 -592 1 -636 -1z"/>
<path d="M2678 2120 c-13 -14 -30 -20 -58 -20 -89 0 -210 -73 -210 -126 0 -35
24 -31 100 16 70 43 116 53 107 23 -3 -10 -18 -48 -33 -84 -23 -57 -33 -69
-73 -92 -26 -14 -54 -34 -63 -44 -29 -32 -160 -292 -156 -310 3 -16 137 -92
163 -93 6 0 27 33 48 73 20 39 55 106 78 147 41 75 41 75 35 157 l-6 83 42 63
c24 35 48 72 54 83 11 19 12 19 40 -2 16 -11 46 -46 67 -77 28 -43 44 -57 61
-57 13 0 174 22 358 50 183 27 371 54 418 60 57 7 89 17 98 27 17 24 15 32
-11 44 -17 8 -91 0 -300 -31 -153 -22 -327 -47 -387 -55 -60 -8 -120 -17 -134
-21 -21 -5 -30 2 -66 51 -23 32 -55 65 -71 74 -19 11 -29 25 -31 46 -2 24 -8
31 -28 33 -16 2 -32 -5 -42 -18z m12 -102 c0 -13 -48 -97 -66 -115 -12 -12
-34 -18 -34 -9 0 12 33 94 46 113 15 24 54 32 54 11z m-122 -250 c3 -24 0 -28
-23 -28 -27 0 -41 20 -31 46 10 27 51 13 54 -18z"/>
<path d="M3545 1764 c-55 -7 -221 -27 -370 -44 -148 -18 -273 -34 -277 -36 -5
-3 -8 -16 -8 -30 0 -23 2 -24 77 -24 42 0 149 9 237 20 89 11 224 27 301 35
194 22 209 26 213 54 7 44 -10 46 -173 25z"/>
<path d="M3406 1475 c-98 -13 -228 -29 -289 -34 -112 -11 -137 -20 -137 -51 0
-28 22 -31 153 -20 128 11 510 58 539 66 24 7 30 31 12 49 -20 20 -60 18 -278
-10z"/>
<path d="M3508 1324 c-54 -29 -64 -93 -22 -143 22 -27 33 -31 73 -31 59 0 81
21 88 84 5 40 2 48 -25 76 -34 34 -70 38 -114 14z"/>
<path d="M3077 1242 c-32 -20 -42 -48 -34 -98 8 -46 42 -73 92 -73 61 0 95 36
95 102 0 73 -85 111 -153 69z"/>
<path d="M708 493 c-16 -4 -18 -21 -18 -178 0 -96 3 -176 8 -178 4 -3 20 -3
35 0 l27 5 -2 177 c-3 186 -3 187 -50 174z"/>
<path d="M1705 491 c-19 -8 -20 -15 -15 -182 l5 -174 25 0 c23 0 25 4 28 58 2
31 7 57 12 57 5 0 27 -26 48 -58 32 -47 45 -58 70 -60 17 -1 33 2 36 7 3 5
-17 39 -45 75 l-51 67 41 44 c23 25 41 47 41 50 0 3 -15 5 -33 5 -26 0 -38 -8
-67 -45 -19 -24 -38 -44 -42 -45 -5 0 -8 47 -8 105 0 110 -2 113 -45 96z"/>
<path d="M2504 468 c3 -13 6 -92 6 -175 l0 -153 30 0 30 0 0 90 c0 87 1 91 25
100 16 6 34 6 50 0 24 -9 25 -13 25 -100 l0 -90 30 0 30 0 0 103 c0 88 -3 106
-18 120 -21 19 -77 22 -116 7 l-26 -10 0 65 0 65 -36 0 c-33 0 -36 -2 -30 -22z"/>
<path d="M272 303 l3 -168 75 3 c127 5 170 30 170 97 0 33 -34 75 -60 75 -9 0
-4 11 13 28 44 46 33 101 -24 121 -18 6 -65 11 -106 11 l-73 0 2 -167z m146
105 c7 -7 12 -21 12 -33 0 -31 -19 -45 -62 -45 l-38 0 0 45 0 45 38 0 c21 0
43 -5 50 -12z m13 -138 c12 -7 19 -21 19 -39 0 -22 -7 -31 -29 -41 -16 -6 -42
-10 -57 -8 -27 3 -29 7 -32 51 l-3 47 41 0 c23 0 50 -5 61 -10z"/>
<path d="M2159 455 c-38 -20 -52 -67 -35 -110 11 -25 30 -41 78 -66 47 -25 64
-40 66 -58 5 -33 -13 -42 -82 -39 -47 1 -60 -2 -68 -16 -15 -27 6 -36 80 -36
73 0 118 19 132 56 25 65 0 107 -90 152 -38 19 -56 34 -58 49 -4 25 11 31 88
35 38 3 45 6 48 26 3 21 0 22 -65 22 -39 -1 -79 -7 -94 -15z"/>
<path d="M1005 379 c-66 -39 -94 -100 -75 -168 15 -56 50 -81 116 -81 42 0 59
5 83 26 58 49 64 148 11 199 -32 31 -102 43 -135 24z m89 -61 c23 -33 21 -103
-4 -128 -26 -26 -48 -25 -77 2 -17 16 -23 33 -23 63 0 53 23 85 60 85 18 0 34
-8 44 -22z"/>
<path d="M2975 375 c-53 -28 -75 -64 -75 -123 0 -48 4 -58 34 -88 29 -29 41
-34 80 -34 63 0 92 16 116 65 22 46 26 92 9 127 -25 55 -109 82 -164 53z m88
-50 c20 -19 30 -68 22 -97 -19 -60 -70 -76 -104 -32 -41 52 -16 144 39 144 16
0 35 -7 43 -15z"/>
<path d="M1389 365 c-57 -31 -75 -125 -36 -182 28 -41 61 -55 123 -51 42 3 49
6 52 26 3 20 -1 22 -42 22 -33 0 -50 6 -65 21 -60 64 -13 152 71 134 25 -6 28
-4 28 19 0 25 -3 26 -52 26 -29 -1 -65 -7 -79 -15z"/>
<path d="M3314 328 c3 -29 6 -110 6 -180 l0 -128 30 0 c30 0 30 0 30 59 l0 58
48 -5 c41 -3 52 0 80 23 58 49 65 136 15 195 -21 25 -32 30 -70 30 -24 0 -53
-5 -64 -10 -13 -7 -19 -7 -19 0 0 5 -14 10 -31 10 l-32 0 7 -52z m158 -5 c20
-18 24 -75 8 -117 -10 -28 -46 -42 -79 -31 -19 6 -21 14 -21 80 0 49 4 75 13
78 25 11 61 6 79 -10z"/>
</g>
</svg>
